<?xml version="1.0" standalone="no"?>
<!DOCTYPE svg PUBLIC "-//W3C//DTD SVG 20010904//EN"
 "http://www.w3.org/TR/2001/REC-SVG-20010904/DTD/svg10.dtd">
<svg version="1.0" xmlns="http://www.w3.org/2000/svg"
 width="48.000000pt" height="48.000000pt" viewBox="0 0 48.000000 48.000000"
 preserveAspectRatio="xMidYMid meet">

<g transform="translate(0.000000,48.000000) scale(0.100000,-0.100000)"
fill="#000000" stroke="none">
<path d="M222 440 c-18 -11 -35 -27 -38 -34 -3 -8 -12 -12 -19 -10 -14 6 -90
-29 -100 -46 -6 -9 144 -311 166 -334 10 -11 109 32 109 46 0 5 -9 26 -20 47
l-19 39 36 7 c91 17 118 104 65 206 -30 59 -80 99 -121 99 -14 0 -41 -9 -59
-20z m112 -21 c35 -28 76 -110 76 -153 0 -53 -36 -89 -91 -92 -24 -1 -45 -2
-47 -3 -1 -1 9 -24 24 -52 14 -28 24 -52 22 -54 -17 -15 -72 -35 -78 -28 -4 4
-41 74 -83 155 l-76 148 39 20 c25 13 41 16 45 9 4 -6 23 7 44 30 44 48 82 54
125 20z"/>
<path d="M199 347 c-9 -20 -5 -35 20 -85 27 -54 35 -62 60 -62 59 0 65 57 16
132 -31 47 -78 54 -96 15z m90 -48 c26 -49 23 -79 -7 -79 -20 0 -77 104 -66
121 14 23 50 3 73 -42z"/>
</g>
</svg>
