<?xml version="1.0" encoding="utf-8" standalone="no"?>
<!DOCTYPE svg PUBLIC "-//W3C//DTD SVG 20010904//EN" "http://www.w3.org/TR/2001/REC-SVG-20010904/DTD/svg10.dtd"[]>
<svg version="1.0" xmlns="http://www.w3.org/2000/svg" width="745.2" height="399.6" viewBox="172.8 345.6 745.2 399.6" preserveAspectRatio="xMidYMid meet">
  <g transform="translate(0.000000,1080.000000) scale(0.100000,-0.100000)" fill="#000000" stroke="none">
    <path d="M4315 7295 c-170 -27 -294 -51 -315 -62 -22 -11 -42 -33 -54 -57 l-19 -40 117 -804 c65 -442 116 -806 114 -808 -2 -2 -21 36 -41 84 -148 350 -363 585 -607 663 -99 32 -254 37 -356 11 -204 -51 -367 -170 -465 -336 -22 -37 -23 -38 -38 -20 -29 36 -65 54 -105 54 -27 0 -119 -34 -305 -112 -211 -89 -274 -120 -304 -149 -69 -68 -91 -5 414 -1186 248 -581 455 -1063 461 -1072 5 -9 22 -25 36 -36 50 -37 88 -27 372 94 146 62 277 120 291 128 34 20 59 63 59 103 0 18 -49 146 -115 300 -63 148 -115 271 -115 273 0 2 26 -2 58 -9 206 -49 464 28 641 191 88 81 177 235 197 340 3 19 9 35 13 35 4 0 14 -50 23 -111 22 -154 54 -192 162 -191 85 1 550 78 591 97 40 20 75 66 75 101 0 35 10 34 75 -11 220 -150 562 -154 821 -10 46 26 65 32 68 23 40 -138 49 -143 293 -166 l190 -17 -84 -190 c-71 -163 -83 -196 -79 -233 5 -57 36 -88 133 -136 182 -90 385 -153 528 -163 197 -13 405 79 635 282 30 26 360 341 732 698 710 682 718 690 703 759 -14 59 -46 82 -257 173 -219 95 -258 104 -318 69 -17 -11 -153 -149 -302 -308 -150 -159 -274 -283 -276 -277 -2 7 8 185 23 395 15 211 25 400 21 421 -14 72 -48 94 -359 230 -322 140 -350 146 -407 98 -17 -14 -36 -38 -42 -52 -6 -16 -18 -378 -29 -926 l-19 -900 -22 -19 c-38 -30 -115 -18 -240 39 -95 42 -129 65 -99 65 5 0 16 18 25 40 22 55 130 1284 122 1395 -14 212 -136 386 -333 476 -306 141 -866 166 -1145 52 -185 -75 -342 -248 -356 -392 -4 -42 -1 -52 24 -80 26 -27 55 -39 252 -96 270 -79 298 -85 335 -78 28 6 41 17 112 100 58 67 167 92 253 57 54 -21 68 -53 64 -141 l-2 -31 -152 5 c-452 16 -836 -144 -971 -402 l-15 -30 -7 50 c-4 28 -65 422 -135 877 -89 581 -132 834 -144 852 -21 33 -54 55 -92 60 -16 2 -155 -15 -309 -39z m299 -132 c195 -1269 356 -2334 356 -2350 0 -26 8 -24 -274 -68 -250 -38 -286 -41 -286 -22 0 6 -79 547 -175 1202 -95 654 -172 1192 -169 1194 6 6 467 78 511 80 29 1 32 -2 37 -36z m1442 -643 c244 -19 446 -70 555 -141 102 -65 170 -171 190 -294 10 -62 4 -147 -46 -715 -31 -354 -58 -647 -61 -649 -5 -5 -484 36 -490 42 -2 2 -8 31 -12 64 -16 115 -69 148 -160 101 -252 -133 -285 -143 -452 -143 -120 0 -189 15 -277 57 -147 72 -233 210 -233 378 0 267 196 466 535 545 117 27 265 37 431 30 l162 -7 31 29 c26 23 34 40 42 93 19 120 -7 210 -78 269 -127 105 -386 68 -480 -68 -16 -22 -33 -40 -40 -41 -8 0 -368 101 -436 123 -15 4 46 103 96 154 93 96 246 157 434 172 143 12 148 12 289 1z m1541 -326 c148 -64 272 -120 276 -124 5 -4 -6 -198 -22 -431 -17 -233 -31 -449 -31 -480 0 -89 49 -133 117 -104 15 7 129 120 253 251 329 350 412 434 430 434 17 0 339 -136 353 -150 9 -8 -1247 -1223 -1390 -1345 -236 -202 -406 -267 -602 -231 -156 28 -461 147 -461 179 0 12 125 306 135 315 2 2 66 -23 142 -56 181 -78 195 -82 267 -82 100 0 182 49 210 125 4 11 16 418 26 905 11 487 20 891 20 898 0 6 2 12 5 12 3 0 125 -52 272 -116z m-4110 -54 c238 -83 448 -362 577 -765 60 -188 76 -374 42 -504 -53 -207 -222 -367 -451 -426 -85 -22 -159 -19 -271 11 -131 34 -162 34 -192 -2 -18 -21 -23 -35 -19 -59 3 -17 62 -164 131 -327 69 -162 126 -300 126 -306 0 -14 -501 -225 -511 -215 -9 9 -877 2037 -885 2068 -5 19 20 31 248 128 139 59 256 107 260 107 3 0 14 -20 24 -45 30 -79 93 -107 146 -66 13 11 44 57 68 103 81 152 213 258 385 310 82 24 235 19 322 -12z" />
    <path d="M5935 5591 c-215 -53 -324 -165 -313 -322 6 -82 43 -134 123 -174 53 -27 70 -30 150 -30 76 0 99 4 146 26 64 30 133 89 155 131 30 57 46 282 24 330 -27 58 -143 74 -285 39z m160 -203 c-8 -110 -20 -131 -95 -170 -146 -77 -305 17 -231 137 34 56 188 120 299 124 l34 1 -7 -92z" />
    <path d="M2943 5746 c-149 -55 -244 -199 -212 -319 6 -23 78 -201 161 -394 l150 -353 64 -30 c189 -91 404 -8 460 176 32 106 6 257 -79 469 -163 406 -319 535 -544 451z m208 -141 c100 -65 278 -453 296 -642 13 -141 -81 -239 -210 -219 -86 14 -82 7 -235 367 -85 198 -142 344 -142 364 0 36 32 88 71 117 70 52 154 57 220 13z" />
  </g>
</svg>